<svg xmlns="http://www.w3.org/2000/svg" width="256" height="256" fill="none" viewBox="0 0 256 256">
<!-- SVG created with Arrow, by QuiverAI (https://quiver.ai) -->
  <path d="m233 96.31-153.6-88.31-56.78 31.76v175.4l56.44 33.22 153.9-89.69v-62.4z" fill="url(#paint0_linear_1202_130)"/>
  <path d="m79.42 8 153.6 88.31-64.28 31.45-89.3-119.8z" fill="url(#paint1_linear_1202_130)"/>
  <path d="m233 96.31-64.28 31.45-32.63-41.35 96.91 9.9z" fill="url(#paint2_linear_1202_130)"/>
  <path d="m233 158.7-64.28-30.95-33.03 42.41 97.31-11.46z" fill="url(#paint3_linear_1202_130)"/>
  <path d="m79.08 248.4 153.9-89.69-97.31 11.46-56.61 78.23z" fill="url(#paint4_linear_1202_130)"/>
  <path d="m79.42 8 8.89 72.43-65.67-40.67 56.78-31.76z" fill="url(#paint5_linear_1202_130)"/>
  <path d="m22.64 39.76 43 88.24-43 87.18v-175.4z" fill="url(#paint6_linear_1202_130)"/>
  <path d="m88.31 80.43-65.67-40.67 43 88.24 22.67-47.57z" fill="url(#paint7_linear_1202_130)"/>
  <path d="m65.64 128-43 87.18 65.67-40.67-22.67-46.51z" fill="url(#paint8_linear_1202_130)"/>
  <path d="m79.08 248.4 9.23-73.89-65.67 40.67 56.44 33.22z" fill="url(#paint9_linear_1202_130)"/>
  <path d="m79.42 8 89.3 119.8-80.41-47.33-8.89-72.43z" fill="url(#paint10_linear_1202_130)"/>
  <path d="m233 96.31v62.4l-64.28-30.95 64.28-31.45z" fill="url(#paint11_linear_1202_130)"/>
  <path d="m79.08 248.4 89.64-120.6-80.41 46.75-9.23 73.89z" fill="url(#paint12_linear_1202_130)"/>
  <path d="m88.31 80.43 80.41 47.33-80.41 46.75v-94.08z" fill="#0ff"/>
  <defs>
    <linearGradient id="paint0_linear_1202_130" x1="22.64" x2="233" y1="128.2" y2="128.2" gradientUnits="userSpaceOnUse">
      <stop stop-color="#892286" offset="0"/>
      <stop stop-color="#320B7A" offset="1"/>
    </linearGradient>
    <linearGradient id="paint1_linear_1202_130" x1="117" x2="159.5" y1="14.94" y2="106.5" gradientUnits="userSpaceOnUse">
      <stop stop-color="#521B86" offset="0"/>
      <stop stop-color="#6E2CAC" offset="1"/>
    </linearGradient>
    <linearGradient id="paint2_linear_1202_130" x1="151.1" x2="179.4" y1="80.6" y2="127.1" gradientUnits="userSpaceOnUse">
      <stop stop-color="#9A48D4" offset="0"/>
      <stop stop-color="#9446D5" offset="1"/>
    </linearGradient>
    <linearGradient id="paint3_linear_1202_130" x1="157.6" x2="189.5" y1="123.6" y2="165.4" gradientUnits="userSpaceOnUse">
      <stop stop-color="#522590" offset="0"/>
      <stop stop-color="#7236B5" offset="1"/>
    </linearGradient>
    <linearGradient id="paint4_linear_1202_130" x1="120.8" x2="155.2" y1="178.5" y2="227.2" gradientUnits="userSpaceOnUse">
      <stop stop-color="#47168E" offset="0"/>
      <stop stop-color="#45158C" offset="1"/>
    </linearGradient>
    <linearGradient id="paint5_linear_1202_130" x1="41.76" x2="75.27" y1="14.07" y2="73.95" gradientUnits="userSpaceOnUse">
      <stop stop-color="#9141DB" offset="0"/>
      <stop stop-color="#9A48D4" offset="1"/>
    </linearGradient>
    <linearGradient id="paint6_linear_1202_130" x1="22.64" x2="65.64" y1="127.5" y2="127.5" gradientUnits="userSpaceOnUse">
      <stop stop-color="#892286" offset="0"/>
      <stop stop-color="#822389" offset="1"/>
    </linearGradient>
    <linearGradient id="paint7_linear_1202_130" x1="34.3" x2="77.21" y1="47.56" y2="108.7" gradientUnits="userSpaceOnUse">
      <stop stop-color="#633BA4" offset="0"/>
      <stop stop-color="#7236B5" offset="1"/>
    </linearGradient>
    <linearGradient id="paint8_linear_1202_130" x1="46.55" x2="81.58" y1="140" y2="170.1" gradientUnits="userSpaceOnUse">
      <stop stop-color="#521B86" offset="0"/>
      <stop stop-color="#47168E" offset="1"/>
    </linearGradient>
    <linearGradient id="paint9_linear_1202_130" x1="51.31" x2="70.81" y1="187.4" y2="238" gradientUnits="userSpaceOnUse">
      <stop stop-color="#471665" offset="0"/>
      <stop stop-color="#390961" offset="1"/>
    </linearGradient>
    <linearGradient id="paint10_linear_1202_130" x1="109.9" x2="137.4" y1="28.5" y2="104.4" gradientUnits="userSpaceOnUse">
      <stop stop-color="#521B86" offset="0"/>
      <stop stop-color="#390961" offset="1"/>
    </linearGradient>
    <linearGradient id="paint11_linear_1202_130" x1="195" x2="207" y1="96.31" y2="149.1" gradientUnits="userSpaceOnUse">
      <stop stop-color="#471680" offset="0"/>
      <stop stop-color="#390972" offset="1"/>
    </linearGradient>
    <linearGradient id="paint12_linear_1202_130" x1="122.6" x2="111.8" y1="146.9" y2="202" gradientUnits="userSpaceOnUse">
      <stop stop-color="#000F6E" offset="0"/>
      <stop stop-color="#391582" offset=".2708"/>
      <stop stop-color="#47168E" offset=".5677"/>
      <stop stop-color="#390961" offset="1"/>
    </linearGradient>
  </defs>
</svg>
